<svg xmlns="http://www.w3.org/2000/svg" viewBox="0 0 64 64" fill="none" stroke="#a78bc4" stroke-width="2" stroke-linecap="round" stroke-linejoin="round">
  <!-- stem -->
  <path d="M32 54 Q32 44 32 38"/>
  <!-- left root curve -->
  <path d="M32 50 Q24 50 20 54"/>
  <!-- right root curve -->
  <path d="M32 50 Q40 50 44 54"/>
  <!-- center petal -->
  <path d="M32 38 Q28 28 32 20 Q36 28 32 38Z"/>
  <!-- left inner petal -->
  <path d="M32 36 Q22 28 22 18 Q29 24 32 36Z"/>
  <!-- right inner petal -->
  <path d="M32 36 Q42 28 42 18 Q35 24 32 36Z"/>
  <!-- left outer petal -->
  <path d="M28 34 Q14 28 14 14 Q22 22 28 34Z"/>
  <!-- right outer petal -->
  <path d="M36 34 Q50 28 50 14 Q42 22 36 34Z"/>
</svg>
